<?xml version="1.0" encoding="UTF-8" standalone="no"?>
<!-- Created with Inkscape (http://www.inkscape.org/) -->

<svg
   xmlns:dc="http://purl.org/dc/elements/1.1/"
   xmlns:cc="http://creativecommons.org/ns#"
   xmlns:rdf="http://www.w3.org/1999/02/22-rdf-syntax-ns#"
   xmlns:svg="http://www.w3.org/2000/svg"
   xmlns="http://www.w3.org/2000/svg"
   xmlns:sodipodi="http://sodipodi.sourceforge.net/DTD/sodipodi-0.dtd"
   xmlns:inkscape="http://www.inkscape.org/namespaces/inkscape"
   sodipodi:docname="Y-boY.svg"
   inkscape:version="0.92.2 (5c3e80d, 2017-08-06)"
   sodipodi:version="0.32"
   id="svg2"
   height="114.63097mm"
   width="175.49734mm"
   version="1.1">
  <defs
     id="defs3" />
  <sodipodi:namedview
     inkscape:window-y="-4"
     inkscape:window-x="-4"
     inkscape:window-height="1080"
     inkscape:window-width="1600"
     inkscape:current-layer="layer1"
     inkscape:document-units="px"
     inkscape:cy="219.82516"
     inkscape:cx="344.46892"
     inkscape:zoom="1"
     inkscape:pageshadow="2"
     inkscape:pageopacity="0.0"
     borderopacity="1.0"
     bordercolor="#666666"
     pagecolor="#ffffff"
     id="base"
     showgrid="false"
     inkscape:window-maximized="1" />
  <metadata
     id="metadata4">
    <rdf:RDF>
      <cc:Work
         rdf:about="">
        <dc:format>image/svg+xml</dc:format>
        <dc:type
           rdf:resource="http://purl.org/dc/dcmitype/StillImage" />
        <dc:title></dc:title>
      </cc:Work>
    </rdf:RDF>
  </metadata>
  <g
     id="layer1"
     inkscape:groupmode="layer"
     inkscape:label="Layer 1"
     transform="translate(-30.531079,-117.44631)">
    <path
       d="m 237.62066,201.08976 c -5.75358,4.52349 -6.11553,3.62823 15.62521,-8.54196 1.10847,-0.62051 -2.15085,1.35238 -3.22145,2.03616 -4.886,3.12065 -9.55579,6.38969 -13.84317,10.31976 -12.32483,11.29769 -21.0777,24.71765 -27.30585,40.14069 -4.78693,15.60308 -10.88132,43.75525 5.62304,54.47558 1.27338,0.43183 2.62754,0.27256 3.93309,0.40799 l -18.40346,13.13254 c -1.42494,-0.35579 -2.97054,-0.31029 -4.29446,-1.07229 -16.98853,-11.39064 -10.92964,-41.93872 -6.26183,-57.97418 12.75152,-31.84512 35.8193,-52.39405 66.66832,-66.37945 z"
       id="path1291"
       style="fill:#000000;fill-opacity:1;fill-rule:nonzero;stroke:none;stroke-width:1px;stroke-linecap:butt;stroke-linejoin:miter;stroke-opacity:1"
       inkscape:connector-curvature="0" />
    <path
       d="m 291.19815,246.28559 c -5.58644,7.52163 -45.36185,27.602 -4.89538,4.69277 1.6246,-0.91973 -3.18344,1.95105 -4.77683,2.92384 -6.49196,3.96346 -12.93017,7.92408 -19.22512,12.19942 -32.1102,25.10283 -65.69897,53.26701 -79.5688,92.79094 -3.26126,9.8885 -6.13326,19.89951 -8.867,29.94482 l -20.01504,9.48841 c 3.20451,-10.19393 6.49824,-20.35973 9.81803,-30.51667 13.9168,-39.6571 46.67083,-67.99818 78.51598,-93.80646 12.78383,-8.84499 72.01013,-44.20181 28.61786,-17.32465 z"
       id="path1293"
       style="fill:#000000;fill-opacity:1;fill-rule:nonzero;stroke:none;stroke-width:1px;stroke-linecap:butt;stroke-linejoin:miter;stroke-opacity:1"
       inkscape:connector-curvature="0" />
    <path
       d="m 437.90341,204.47175 c 5.75358,4.52349 6.11552,3.62823 -15.62521,-8.54196 -1.10848,-0.62051 2.15084,1.35238 3.22145,2.03616 4.886,3.12065 9.55579,6.38969 13.84316,10.31976 12.32483,11.29769 21.0777,24.71765 27.30585,40.14069 4.78694,15.60308 10.88133,43.75525 -5.62303,54.47558 -1.27338,0.43183 -2.62754,0.27256 -3.9331,0.40799 l 18.40346,13.13254 c 1.42495,-0.35579 2.97054,-0.31029 4.29447,-1.07229 16.98853,-11.39064 10.92964,-41.93872 6.26183,-57.97418 -12.75152,-31.84512 -35.8193,-52.39405 -66.66832,-66.37945 z"
       id="path1309"
       style="fill:#000000;fill-opacity:1;fill-rule:nonzero;stroke:none;stroke-width:1px;stroke-linecap:butt;stroke-linejoin:miter;stroke-opacity:1"
       inkscape:connector-curvature="0" />
    <path
       d="m 384.32592,249.66758 c 5.58644,7.52163 45.36185,27.602 4.89537,4.69277 -1.62459,-0.91973 3.18345,1.95105 4.77684,2.92384 6.49196,3.96346 12.93017,7.92408 19.22512,12.19942 32.1102,25.10283 65.69896,53.26701 79.56879,92.79094 3.26126,9.8885 6.13327,19.89951 8.86701,29.94482 l 20.01503,9.48841 c -3.2045,-10.19393 -6.49823,-20.35973 -9.81802,-30.51667 -13.91681,-39.6571 -46.67084,-67.99818 -78.51598,-93.80646 -12.78383,-8.84499 -72.01013,-44.20181 -28.61786,-17.32465 z"
       id="path1311"
       style="fill:#000000;fill-opacity:1;fill-rule:nonzero;stroke:none;stroke-width:1px;stroke-linecap:butt;stroke-linejoin:miter;stroke-opacity:1"
       inkscape:connector-curvature="0" />
    <path
       d="m 232.48734,322.64304 c 6.50057,-0.61117 13.01496,-1.55673 19.52575,-2.25462 l -17.81577,13.2231 c -6.76057,0.65553 -13.45932,1.76252 -20.20619,2.46981 z"
       id="path1323"
       style="fill:#000000;fill-opacity:1;fill-rule:nonzero;stroke:none;stroke-width:1px;stroke-linecap:butt;stroke-linejoin:miter;stroke-opacity:1"
       inkscape:connector-curvature="0" />
    <path
       d="m 269.73489,165.27981 c 6.96309,-3.95526 13.71562,-8.30667 20.88928,-11.86579 26.17115,-12.98445 91.81537,-8.91951 120.50175,-10.02101 83.19767,-3.19464 167.17338,0.003 249.83966,10.19516 30.154,3.22071 35.88061,7.27293 31.60972,38.03244 -3.15929,22.75362 -6.62107,45.46751 -10.39879,68.12667 -9.89791,59.36877 -21.68666,118.42129 -31.81422,177.75725 -11.35602,40.31184 4.03715,94.63995 -39.26413,113.05026 -4.14996,1.76443 -31.72504,-13.44808 -31.83097,-13.49326 -50.56154,-21.56299 -102.60292,-37.5017 -155.4621,-52.33957 -119.98807,-32.87393 -243.63498,-31.6661 -365.754004,-15.83462 -38.960015,6.42047 -22.694661,-7.39792 -19.561354,-44.10206 2.709066,-31.7345 2.146433,-37.05684 2.681225,-70.8726 C 50.281282,334.5035 23.94239,176.33879 32.133253,164.17485 54.11432,131.53159 140.35441,132.9427 172.88609,129.74275 c 71.39132,-5.35137 142.9022,-11.34486 214.53023,-12.29644 l -16.14382,11.69391 c -69.49549,-3.08105 -139.22401,2.05779 -208.40842,8.05478 -15.87875,1.95953 -106.117489,12.13448 -111.140019,17.66625 -5.820374,6.41051 -1.843243,30.33175 -1.782209,37.28218 0.45556,51.87811 1.869999,103.73963 3.324397,155.59751 1.038479,37.21308 1.380113,34.83712 0.957067,69.16533 -0.391922,31.80262 -11.439452,44.98096 21.128882,39.08956 119.637432,-13.4536 241.244832,-6.55802 358.350312,21.94481 53.86484,15.4179 107.48113,31.33852 160.66177,48.99134 9.80324,3.25409 19.3496,7.44589 29.4289,9.70426 1.47264,0.32996 5.64355,-0.86808 4.52513,0.14516 -4.462,4.04236 -9.81177,7.12024 -15.29345,9.61045 -4.28812,1.94799 5.01594,-8.13594 6.20918,-12.69212 7.80124,-29.78776 12.01681,-60.5107 19.26298,-90.42128 11.78772,-58.86349 23.22638,-117.78647 31.09136,-177.32873 3.62271,-27.42601 4.97034,-39.24696 6.03113,-65.81758 1.09389,-27.39987 -3.34599,-31.21237 -30.24715,-35.55607 -93.46886,-15.85103 -189.53956,-17.81743 -283.94982,-10.84559 -22.4789,1.65999 -42.55963,3.47362 -64.56539,7.3439 -20.17913,3.54901 -24.78427,7.04239 -23.85904,6.37932 5.64077,-4.04249 11.9898,-6.99174 17.98471,-10.48761 z"
       id="path1343"
       style="fill:#000000;fill-opacity:1;fill-rule:nonzero;stroke:none;stroke-width:1px;stroke-linecap:butt;stroke-linejoin:miter;stroke-opacity:1"
       inkscape:connector-curvature="0" />
    <path
       d="m 286.12643,281.21979 c 6.58952,-3.31033 12.89101,-7.27029 19.76856,-9.931 4.73268,-1.83092 -0.99814,10.10591 -1.19321,15.17666 -0.77258,20.08319 -0.88281,39.94272 -3.15505,59.93065 -1.35249,7.12362 -1.51434,14.32198 -1.52133,21.55142 0.005,1.8848 0.0277,3.76949 0.045,5.65421 l -20.1495,10.2699 c 0.0125,-1.89911 0.0293,-3.7982 0.0325,-5.69735 0.008,-7.31878 -0.14347,-14.69092 1.47063,-21.874 3.87546,-22.53122 4.82736,-44.68966 4.29661,-67.56614 -0.0578,-2.49199 -2.20807,-6.01936 -0.18509,-7.47569 6.33165,-4.55812 13.39919,-7.99541 20.09879,-11.99311 z"
       id="path1345"
       style="fill:#000000;fill-opacity:1;fill-rule:nonzero;stroke:none;stroke-width:1px;stroke-linecap:butt;stroke-linejoin:miter;stroke-opacity:1"
       inkscape:connector-curvature="0" />
    <path
       d="m 285.53501,320.31741 c 20.66983,-3.21503 42.49588,-10.10691 63.30836,-4.61094 14.28602,3.22403 17.75774,12.22899 17.15759,26.07334 -6.61922,27.75949 -47.61955,31.21595 -71.18814,32.29901 -12.49809,0.47329 -25.00353,0.80618 -37.51021,0.93921 l 18.25197,-13.24372 c 12.09371,0.26496 24.19559,0.37684 36.28363,-0.20171 10.65162,-0.62524 21.23117,-1.33336 31.52963,-4.31822 4.27369,-1.23867 16.23468,-7.11933 12.48494,-4.72387 -27.65126,17.66458 -11.81555,9.85004 -9.80563,-0.93931 1.26448,-13.00694 -2.46769,-20.23097 -15.41853,-23.3463 -20.65194,-5.28326 -42.98882,1.703 -63.20669,5.92282 z"
       id="path1347"
       style="fill:#000000;fill-opacity:1;fill-rule:nonzero;stroke:none;stroke-width:1px;stroke-linecap:butt;stroke-linejoin:miter;stroke-opacity:1"
       inkscape:connector-curvature="0" />
    <path
       d="m 405.62066,331.08976 c 1.51143,-4.52124 -27.7953,8.22537 -23.33416,5.69241 28.89618,-16.40678 18.02556,-10.99945 11.68196,-5.60266 -9.15474,7.08201 -13.21942,15.11215 -10.82179,26.52826 6.04462,12.28223 22.98305,12.2728 35.05774,11.77209 9.89987,-0.72249 28.27014,-11.90577 -4.54955,6.12035 -0.70786,0.38879 1.35564,-0.8837 1.98172,-1.39383 5.28317,-4.3047 6.51643,-10.69969 7.26286,-17.06893 0.70264,-8.81764 -1.66973,-17.81158 -8.49704,-23.66774 -5.58468,-5.03117 -11.852,-7.69056 -19.2352,-8.44886 -2.16238,-0.0898 -4.32682,-0.0506 -6.49017,-0.046 l 18.2961,-13.29623 c 2.19128,0.0309 4.38736,-0.002 6.57022,0.23313 7.6736,1.08296 14.24129,4.64206 20.13817,9.62308 6.8523,6.56785 9.691,16.2371 9.19459,25.61503 -1.81077,21.59691 -20.95909,33.72219 -42.40118,35.27501 -13.5741,0.0812 -30.39804,-0.0803 -36.92529,-13.98865 -2.9686,-11.819 0.036,-21.31398 9.86758,-28.88627 13.98669,-12.95664 31.6631,-21.9436 50.72288,-21.91539 z"
       id="path1349"
       style="fill:#000000;fill-opacity:1;fill-rule:nonzero;stroke:none;stroke-width:1px;stroke-linecap:butt;stroke-linejoin:miter;stroke-opacity:1"
       inkscape:connector-curvature="0" />
    <path
       d="m 285.48734,290.64304 c 9.52157,-3.90123 19.91311,-6.91857 30.3018,-8.26757 10.9345,-0.73179 22.45803,-2.57541 31.94531,3.81486 5.68902,4.90081 10.11611,10.27322 3.71307,16.37821 -12.40689,10.07394 -26.85967,15.83611 -41.65429,20.9724 L 326.69127,310.367 c 37.07607,-13.24414 -13.87908,8.60887 3.91916,0.43149 6.72909,-4.38454 3.38581,-8.0222 -1.88351,-12.58044 -9.15159,-5.52672 -20.53957,-3.0871 -30.74065,-2.56707 -10.65457,1.697 -20.72572,5.57543 -30.99514,8.43035 z"
       id="path1353"
       style="fill:#000000;fill-opacity:1;fill-rule:nonzero;stroke:none;stroke-width:1px;stroke-linecap:butt;stroke-linejoin:miter;stroke-opacity:1"
       inkscape:connector-curvature="0" />
    <path
       d="m 543.80031,492.66841 c -2.02424,-0.86058 -4.4137,-0.736 -6.59225,-0.46477 4.15272,-2.734 -0.21965,0.5394 2.916,3.15498 1.69966,0.48836 3.48962,0.40396 5.24159,0.40804 l -3.05477,2.2199 c -1.79121,-0.0166 -3.62725,0.0616 -5.33865,-0.54469 -3.80323,-2.95381 -0.35061,-6.12864 3.23433,-7.52742 2.35527,-0.17781 5.0401,-0.44705 6.99313,1.02189 z"
       id="path1360"
       style="fill:#000000;fill-opacity:1;fill-rule:nonzero;stroke:none;stroke-width:1px;stroke-linecap:butt;stroke-linejoin:miter;stroke-opacity:1"
       inkscape:connector-curvature="0" />
    <path
       d="m 545.80031,487.66841 c -1.54583,-1.27857 -4.30532,-1.14894 -6.40779,-1.20082 -7.80861,1.00466 -2.3251,-0.63562 -3.9289,0.96145 -1.64127,2.27976 -1.30493,5.10563 -1.29256,7.78108 0.45734,3.11311 3.28136,4.46761 6.1152,4.97533 7.25393,0.13218 6.09614,0.0263 8.65319,-2.69121 1.91567,-2.99033 3.33519,-6.81879 1.37332,-9.59375 -0.004,-0.0816 -1.39899,-0.29492 -1.40133,-0.29541 l 3.08219,-2.15445 c 0.48713,0.1236 0.99906,0.14946 1.46137,0.37081 2.57985,2.75812 0.64489,7.15458 -1.09105,10.2084 -4.06639,4.61676 -9.08926,7.16178 -15.14991,6.33152 -2.99708,-0.65269 -5.86146,-2.1594 -6.40407,-5.43651 -0.0127,-2.73397 -0.35192,-5.6265 1.18601,-8.02194 2.79636,-3.0446 6.33403,-4.90006 10.44986,-4.64641 2.33925,0.0769 5.20246,-0.0766 6.75385,1.67984 z"
       id="path1362"
       style="fill:#000000;fill-opacity:1;fill-rule:nonzero;stroke:none;stroke-width:1px;stroke-linecap:butt;stroke-linejoin:miter;stroke-opacity:1"
       inkscape:connector-curvature="0" />
    <path
       d="m 563.19969,485.05596 c -0.007,3.61194 -1.4732,6.99211 -2.78867,10.29438 l -3.3572,1.55091 c 1.32723,-3.22467 2.81011,-6.56566 2.74649,-10.11322 z"
       id="path1364"
       style="fill:#000000;fill-opacity:1;fill-rule:nonzero;stroke:none;stroke-width:1px;stroke-linecap:butt;stroke-linejoin:miter;stroke-opacity:1"
       inkscape:connector-curvature="0" />
    <path
       d="m 563.6031,484.74092 c 2.65711,0.10211 3.19658,1.13236 3.23502,3.58729 -6.10636,3.58515 2.27621,-2.28441 4.82581,-3.02094 1.16941,3.01269 1.36649,6.32128 1.51061,9.5265 l -3.35799,1.72118 c -0.10701,-3.13697 -0.28022,-6.3544 -1.39719,-9.31232 6.30782,-5.15684 -2.51808,3.90845 -4.9407,2.83085 -0.0173,-2.35606 -0.40956,-3.07567 -2.96214,-3.09003 z"
       id="path1366"
       style="fill:#000000;fill-opacity:1;fill-rule:nonzero;stroke:none;stroke-width:1px;stroke-linecap:butt;stroke-linejoin:miter;stroke-opacity:1"
       inkscape:connector-curvature="0" />
    <path
       d="m 576.3969,485.98345 c 5.81329,-3.95454 -0.47503,2.02415 -1.73795,4.37224 1.50479,1.43224 4.83063,0.95423 7.13647,0.8257 l -3.02966,2.26075 c -2.5864,0.0747 -6.10961,0.73332 -7.52776,-1.47761 1.75838,-3.67643 4.57375,-6.50163 8.24548,-8.22361 z"
       id="path1368"
       style="fill:#000000;fill-opacity:1;fill-rule:nonzero;stroke:none;stroke-width:1px;stroke-linecap:butt;stroke-linejoin:miter;stroke-opacity:1"
       inkscape:connector-curvature="0" />
    <path
       d="m 580.69969,489.55596 c -0.0298,1.95018 -0.0276,3.90079 -0.0238,5.85117 l -3.35188,1.70786 c 0.004,-1.94231 0.006,-3.88485 -0.0238,-5.82696 z"
       id="path1370"
       style="fill:#000000;fill-opacity:1;fill-rule:nonzero;stroke:none;stroke-width:1px;stroke-linecap:butt;stroke-linejoin:miter;stroke-opacity:1"
       inkscape:connector-curvature="0" />
    <path
       d="m 582.80031,486.16841 c 5.19633,-3.93762 3.63311,2.22073 3.0454,5.68661 l -3.4134,1.6238 c 0.84949,-4.26576 -1.25129,-7.30951 3.76738,-9.04248 z"
       id="path1376"
       style="fill:#000000;fill-opacity:1;fill-rule:nonzero;stroke:none;stroke-width:1px;stroke-linecap:butt;stroke-linejoin:miter;stroke-opacity:1"
       inkscape:connector-curvature="0" />
    <path
       d="m 585.6031,483.24092 c 2.79355,2.5316 4.63685,6.99746 6.74749,10.40296 2.10523,4.44897 -2.42817,5.83693 -1.301,-0.59654 0.41847,-2.30898 1.00187,-4.55356 1.61262,-6.81042 l 3.39684,-1.65978 c -0.49831,2.29259 -1.27224,4.50209 -1.62876,6.83766 -0.62941,3.35755 -3.10797,10.50339 -5.31332,4.10312 -1.98935,-3.28886 -3.8549,-7.75298 -6.60045,-10.03447 z"
       id="path1378"
       style="fill:#000000;fill-opacity:1;fill-rule:nonzero;stroke:none;stroke-width:1px;stroke-linecap:butt;stroke-linejoin:miter;stroke-opacity:1"
       inkscape:connector-curvature="0" />
    <path
       d="m 585.69756,489.11685 c -0.0176,1.42502 -0.0133,2.85024 -0.0137,4.27535 l -3.36766,1.7159 c -4.5e-4,-1.42044 0.004,-2.841 -0.0137,-4.26135 z"
       id="path1380"
       style="fill:#000000;fill-opacity:1;fill-rule:nonzero;stroke:none;stroke-width:1px;stroke-linecap:butt;stroke-linejoin:miter;stroke-opacity:1"
       inkscape:connector-curvature="0" />
    <path
       d="m 598.1031,495.74092 c 1.89525,-0.1153 3.78747,-0.3387 5.69328,-0.43413 l -3.03119,2.22329 c -1.92407,0.10358 -3.8282,0.36848 -5.74867,0.45337 z"
       id="path1382"
       style="fill:#000000;fill-opacity:1;fill-rule:nonzero;stroke:none;stroke-width:1px;stroke-linecap:butt;stroke-linejoin:miter;stroke-opacity:1"
       inkscape:connector-curvature="0" />
    <path
       d="m 553.80031,499.16841 c -0.84529,-0.16063 -1.83138,-0.15631 -2.72854,-0.19143 l 3.06368,-2.21634 c 1.08162,0.0582 2.25845,-0.10875 3.06424,0.6757 z"
       id="path1384"
       style="fill:#000000;fill-opacity:1;fill-rule:nonzero;stroke:none;stroke-width:1px;stroke-linecap:butt;stroke-linejoin:miter;stroke-opacity:1"
       inkscape:connector-curvature="0" />
  </g>
</svg>
